<?xml version="1.0" encoding="UTF-8" standalone="no"?>
<!-- Created with Inkscape (http://www.inkscape.org/) -->

<svg
   width="1024"
   height="1024"
   viewBox="0 0 270.93333 270.93333"
   version="1.1"
   id="svg1"
   inkscape:version="1.4.2 (f4327f4, 2025-05-13)"
   sodipodi:docname="MadByAd.svg"
   inkscape:export-filename="MadByAd 512x512.png"
   inkscape:export-xdpi="48"
   inkscape:export-ydpi="48"
   xmlns:inkscape="http://www.inkscape.org/namespaces/inkscape"
   xmlns:sodipodi="http://sodipodi.sourceforge.net/DTD/sodipodi-0.dtd"
   xmlns="http://www.w3.org/2000/svg"
   xmlns:svg="http://www.w3.org/2000/svg">
  <sodipodi:namedview
     id="namedview1"
     pagecolor="#505050"
     bordercolor="#eeeeee"
     borderopacity="1"
     inkscape:showpageshadow="0"
     inkscape:pageopacity="0"
     inkscape:pagecheckerboard="0"
     inkscape:deskcolor="#505050"
     inkscape:document-units="px"
     inkscape:zoom="0.37772166"
     inkscape:cx="512.28198"
     inkscape:cy="537.43278"
     inkscape:window-width="1920"
     inkscape:window-height="1057"
     inkscape:window-x="-8"
     inkscape:window-y="-8"
     inkscape:window-maximized="1"
     inkscape:current-layer="svg1" />
  <defs
     id="defs1">
    <rect
       x="226.51579"
       y="763.78878"
       width="662.69909"
       height="153.50657"
       id="rect42" />
    <rect
       x="226.51579"
       y="763.78878"
       width="662.69909"
       height="153.50657"
       id="rect43" />
    <rect
       x="226.51579"
       y="763.78878"
       width="662.69909"
       height="153.50657"
       id="rect44" />
    <rect
       x="226.51579"
       y="763.78878"
       width="662.69909"
       height="153.50657"
       id="rect45" />
  </defs>
  <rect
     style="font-variation-settings:normal;opacity:1;vector-effect:none;fill:#ffffff;fill-opacity:1;fill-rule:evenodd;stroke-width:0;stroke-linecap:butt;stroke-linejoin:miter;stroke-miterlimit:4;stroke-dasharray:none;stroke-dashoffset:0;stroke-opacity:1;-inkscape-stroke:none;stop-color:#000000;stop-opacity:1"
     id="rect40"
     width="270.93332"
     height="270.93332"
     x="-270.93332"
     y="0"
     transform="scale(-1,1)" />
  <g
     inkscape:label="Layer 1"
     inkscape:groupmode="layer"
     id="layer1">
    <g
       id="g42"
       inkscape:label="icon"
       transform="translate(-4.2003558)">
      <path
         style="fill:none;stroke:#000000;stroke-width:0.264583px;stroke-linecap:butt;stroke-linejoin:miter;stroke-opacity:1"
         d="m 118.37868,41.605895 -73.800934,89.155495 28.23257,47.54959 56.465144,-48.54021 17.8311,24.76541 26.74665,-11.39209 24.2701,30.70912 36.65282,-44.08244 -17.8311,-95.099191 -22.28888,56.960452 -34.67157,-10.401472 -44.57775,7.429624 z"
         id="path2"
         sodipodi:nodetypes="ccccccccccccc" />
      <path
         style="fill:none;stroke:#000000;stroke-width:0.264583px;stroke-linecap:butt;stroke-linejoin:miter;stroke-opacity:1"
         d="m 158.00334,92.374994 -64.14242,9.410856 -15.602211,19.81233 9.906166,10.15382 42.844165,-14.36394 22.53653,14.6116 23.52714,-7.18197 25.50838,13.37332 17.8311,-8.42024 -9.65852,-18.32641 z"
         id="path3"
         sodipodi:nodetypes="ccccccccccc" />
      <path
         style="fill:none;stroke:#000000;stroke-width:0.264583px;stroke-linecap:butt;stroke-linejoin:miter;stroke-opacity:1"
         d="M 115.22759,88.609669 94.038324,101.56839 84.056603,83.181014"
         id="path4"
         sodipodi:nodetypes="ccc" />
      <path
         style="fill:none;stroke:#000000;stroke-width:0.264583px;stroke-linecap:butt;stroke-linejoin:miter;stroke-opacity:1"
         d="m 78.36527,121.53184 -33.535083,9.10613"
         id="path5"
         sodipodi:nodetypes="cc" />
      <path
         style="fill:none;stroke:#000000;stroke-width:0.264583px;stroke-linecap:butt;stroke-linejoin:miter;stroke-opacity:1"
         d="M 88.164875,131.62817 73.057971,178.06333"
         id="path6"
         sodipodi:nodetypes="cc" />
      <path
         style="fill:none;stroke:#000000;stroke-width:0.264583px;stroke-linecap:butt;stroke-linejoin:miter;stroke-opacity:1"
         d="m 194.65615,91.384378 16.09752,20.059982 18.91348,-9.43817"
         id="path7"
         sodipodi:nodetypes="ccc" />
      <path
         style="fill:none;stroke:#000000;stroke-width:0.264583px;stroke-linecap:butt;stroke-linejoin:miter;stroke-opacity:1"
         d="m 234.74557,129.67482 -14.44722,0.26268"
         id="path8"
         sodipodi:nodetypes="cc" />
      <path
         style="fill:none;stroke:#000000;stroke-width:0.264583px;stroke-linecap:butt;stroke-linejoin:miter;stroke-opacity:1"
         d="m 202.2612,138.16804 -4.11527,35.28626"
         id="path9"
         sodipodi:nodetypes="cc" />
      <path
         style="fill:none;stroke:#000000;stroke-width:0.264583px;stroke-linecap:butt;stroke-linejoin:miter;stroke-opacity:1"
         d="m 173.97966,143.24646 2.977,-18.38738"
         id="path10"
         sodipodi:nodetypes="cc" />
      <path
         style="fill:none;stroke:#000000;stroke-width:0.264583px;stroke-linecap:butt;stroke-linejoin:miter;stroke-opacity:1"
         d="m 153.57842,132.12647 -6.21669,22.4151"
         id="path11"
         sodipodi:nodetypes="cc" />
      <path
         style="fill:none;stroke:#000000;stroke-width:0.264583px;stroke-linecap:butt;stroke-linejoin:miter;stroke-opacity:1"
         d="m 129.14947,129.76238 1.75118,-12.34581"
         id="path12"
         sodipodi:nodetypes="cc" />
      <path
         style="fill:none;stroke:#000000;stroke-width:0.264583px;stroke-linecap:butt;stroke-linejoin:miter;stroke-opacity:1"
         d="m 158.00334,92.374994 2.10506,-11.39209"
         id="path13"
         sodipodi:nodetypes="cc" />
      <path
         style="fill:#000000;stroke:#000000;stroke-width:2.50153;stroke-linecap:round;stroke-linejoin:round;stroke-miterlimit:8;paint-order:stroke fill markers"
         d="m 717.29617,495.62899 -48.98751,-23.04381 -42.76847,11.29182 -45.63215,12.74796 -43.15247,-27.50107 -41.45885,-26.85116 -80.85888,27.17788 -80.85888,27.17787 -18.03284,-18.64777 -18.03284,-18.64777 27.63461,-35.03622 30.61194,-38.71556 120.91797,-17.59445 120.28068,-17.65919 99.37919,35.90941 99.37917,35.9094 17.6233,33.58729 19.39288,34.60563 -67.30587,30.49327 z"
         id="path27"
         transform="scale(0.26458333)"
         sodipodi:nodetypes="cccccccccccccccccccc" />
      <path
         style="fill:#202020;fill-opacity:1;stroke:#000000;stroke-width:2.50153;stroke-linecap:round;stroke-linejoin:round;stroke-miterlimit:8;paint-order:stroke fill markers"
         d="m 279.17566,667.15793 27.82632,-85.35914 26.98056,-82.71169 79.55271,-26.79018 81.15344,-28.68204 -8.32401,47.28469 -204.23731,175.45537 z"
         id="path28"
         transform="scale(0.26458333)"
         sodipodi:nodetypes="cccccccc" />
      <path
         style="fill:#131313;fill-opacity:1;stroke:#000000;stroke-width:2.50153;stroke-linecap:round;stroke-linejoin:round;stroke-miterlimit:8;paint-order:stroke fill markers"
         d="m 557.89207,582.93099 12.44154,-42.6783 10.77845,-41.72507 88.30266,-25.55279 -7.64057,34.9353 -5.20603,31.98774 -47.54759,20.278 z"
         id="path29"
         transform="scale(0.26458333)"
         sodipodi:nodetypes="cccccccc" />
      <path
         style="fill:#141414;fill-opacity:1;stroke:#000000;stroke-width:2.50153;stroke-linecap:round;stroke-linejoin:round;stroke-miterlimit:8;paint-order:stroke fill markers"
         d="m 749.87479,653.87189 15.02561,-130.21353 35.63557,-16.51171 32.77486,-15.38242 h 25.13815 l 28.0632,-0.88206 -69.11135,81.76128 z"
         id="path30"
         transform="scale(0.26458333)"
         sodipodi:nodetypes="cccccccc" />
      <path
         style="fill:#131313;fill-opacity:1;stroke:#000000;stroke-width:2.50153;stroke-linecap:round;stroke-linejoin:round;stroke-miterlimit:8;paint-order:stroke fill markers"
         d="m 226.02427,588.71762 -52.57903,-88.48875 -3.26828,-5.43448 62.32808,-16.91102 62.32807,-16.91103 18.49021,18.49021 18.4902,18.49021 -27.93127,85.92631 -28.23925,86.90957 z"
         id="path31"
         transform="scale(0.26458333)"
         sodipodi:nodetypes="cccccccccc" />
      <path
         style="fill:#292929;fill-opacity:1;stroke:#000000;stroke-width:2.50153;stroke-linecap:round;stroke-linejoin:round;stroke-miterlimit:8;paint-order:stroke fill markers"
         d="m 522.56431,535.52135 -33.24453,-46.19173 3.10846,-21.40731 3.07074,-24.79376 84.58515,55.30603 -12.29327,42.19679 -11.33863,42.07633 z"
         id="path32"
         transform="scale(0.26458333)"
         sodipodi:nodetypes="cccccccc" />
      <path
         style="fill:#313131;fill-opacity:1;stroke:#000000;stroke-width:2.50153;stroke-linecap:round;stroke-linejoin:round;stroke-miterlimit:8;paint-order:stroke fill markers"
         d="m 703.32688,597.47375 -44.55718,-56.3685 5.51784,-33.86229 5.51784,-33.86229 45.94746,24.14199 48.32187,24.87836 -15.40831,133.00491 z"
         id="path33"
         transform="scale(0.26458333)"
         sodipodi:nodetypes="cccccccc" />
      <path
         style="fill:#1d1d1d;fill-opacity:1;stroke:#000000;stroke-width:2.50153;stroke-linecap:round;stroke-linejoin:round;stroke-miterlimit:8;paint-order:stroke fill markers"
         d="m 356.29928,384.42786 42.80412,-25.81004 36.40247,-22.25884 81.40915,-13.60985 86.52044,-14.54453 -0.94155,5.18754 -3.54784,19.5358 -2.78988,15.2337 -116.06577,16.9296 z"
         id="path35"
         transform="scale(0.26458333)"
         sodipodi:nodetypes="cccccccccc" />
      <path
         style="fill:#121212;fill-opacity:1;stroke:#000000;stroke-width:2.50153;stroke-linecap:round;stroke-linejoin:round;stroke-miterlimit:8;paint-order:stroke fill markers"
         d="m 767.12396,382.58767 -30.24955,-36.81613 82.91412,-211.87357 46.26061,251.37811 -69.2139,34.59327 z"
         id="path36"
         transform="scale(0.26458333)"
         sodipodi:nodetypes="cccccc" />
      <path
         style="fill:#1c1c1c;fill-opacity:1;stroke:#000000;stroke-width:2.50153;stroke-linecap:round;stroke-linejoin:round;stroke-miterlimit:8;paint-order:stroke fill markers"
         d="m 174.76633,488.78445 142.75511,-172.85077 38.29198,67.95927 -31.50054,37.42095 -29.12197,37.10114 -59.44522,16.13427 -65.6554,18.91556 z"
         id="path37"
         transform="scale(0.26458333)"
         sodipodi:nodetypes="cccccccc" />
      <path
         style="fill:#1a1a1a;fill-opacity:1;stroke:#000000;stroke-width:2.50153;stroke-linecap:round;stroke-linejoin:round;stroke-miterlimit:8;paint-order:stroke fill markers"
         d="m 337.57847,348.46785 -19.39351,-34.34694 65.69559,-78.23679 61.30025,-70.43888 -9.76271,161.71733 -0.73243,6.82088 -38.63981,23.51297 -39.4968,23.94995 z"
         id="path38"
         transform="scale(0.26458333)"
         sodipodi:nodetypes="ccccccccc" />
      <path
         style="fill:#1e1e1e;fill-opacity:1;stroke:#000000;stroke-width:2.50153;stroke-linecap:round;stroke-linejoin:round;stroke-miterlimit:8;paint-order:stroke fill markers"
         d="m 694.39909,383.09906 -95.95388,-34.72776 7.11335,-40.00734 65.82519,19.93237 64.6941,18.82966 27.0933,34.431 31.09205,38.11553 z"
         id="path39"
         transform="scale(0.26458333)"
         sodipodi:nodetypes="cccccccc" />
      <path
         style="fill:#212121;fill-opacity:1;stroke:#000000;stroke-width:2.50153;stroke-linecap:round;stroke-linejoin:round;stroke-miterlimit:8;paint-order:stroke fill markers"
         d="m 831.40226,484.60154 -34.35012,-62.70357 69.95731,-34.85457 9.53105,51.77178 9.92309,50.82789 -27.76542,-0.15636 -24.2271,0.52753 z"
         id="path40"
         transform="scale(0.26458333)"
         sodipodi:nodetypes="cccccccc" />
    </g>
    <path
       style="font-weight:bold;font-stretch:semi-condensed;font-size:128px;line-height:1;font-family:'Open Sans SemiCondensed';-inkscape-font-specification:'Open Sans SemiCondensed,  Bold Semi-Condensed';text-align:center;text-anchor:middle;white-space:pre;stroke-width:0"
       d="m 349.02148,864.56734 -20.0625,-69.5625 h -0.5 c 0.125,2.25 0.27083,4.85417 0.4375,7.8125 0.16667,2.91667 0.29167,5.875 0.375,8.875 0.125,2.95833 0.1875,5.64583 0.1875,8.0625 v 44.8125 h -16.8125 v -91.375 h 25.25 l 19.25,66.1875 h 0.4375 l 19.875,-66.1875 h 25.25 v 91.375 h -17.4375 v -45.25 c 0,-2.375 0.0417,-5.02083 0.125,-7.9375 0.0833,-2.91667 0.1875,-5.8125 0.3125,-8.6875 0.16667,-2.875 0.3125,-5.39583 0.4375,-7.5625 h -0.5625 l -20.875,69.4375 z m 121.5625,0 -5.6875,-21.875 h -26.8125 l -5.6875,21.875 h -19.875 l 27.1875,-91.5625 h 23.1875 l 27.4375,91.5625 z m -9.375,-37.625 -5.75,-22.75 c -0.375,-1.70833 -0.8125,-3.58333 -1.3125,-5.625 -0.5,-2.08333 -1,-4.14583 -1.5,-6.1875 -0.45833,-2.04167 -0.85417,-3.875 -1.1875,-5.5 -0.25,1.58333 -0.625,3.4375 -1.125,5.5625 -0.5,2.125 -1,4.22917 -1.5,6.3125 -0.5,2.08333 -0.91667,3.85417 -1.25,5.3125 l -5.75,22.875 z m 107.53068,-53.75 v 66.13675 h 10.5625 v 25.10399 h -17.75 v -9.41649 h -48.6875 v 9.41649 h -17.8125 v -25.10399 h 6.375 c 13.35269,-19.18829 16.2842,-43.34753 18.3125,-66.13675 z m -18.4375,15.4375 h -15 c -0.76998,19.52487 -6.27391,33.13489 -14.375,50.69925 h 29.375 z m 37.15682,-15.4375 h 26.25 c 10.79167,0 18.91667,1.77083 24.375,5.3125 5.45833,3.54167 8.1875,9.375 8.1875,17.5 0,3.5 -0.52083,6.66667 -1.5625,9.5 -1.04167,2.79167 -2.54167,5.10417 -4.5,6.9375 -1.95833,1.79167 -4.33333,3 -7.125,3.625 v 0.625 c 3.16667,0.75 5.875,1.97917 8.125,3.6875 2.25,1.66667 3.97917,3.95833 5.1875,6.875 1.25,2.875 1.875,6.47917 1.875,10.8125 0,5.45833 -1.22917,10.16667 -3.6875,14.125 -2.41667,3.95833 -5.89583,7.02083 -10.4375,9.1875 -4.5,2.125 -9.89583,3.1875 -16.1875,3.1875 h -30.5 z m 18.4375,36.5625 h 8.875 c 4.58333,0 7.85417,-0.9375 9.8125,-2.8125 1.95833,-1.91667 2.9375,-4.72917 2.9375,-8.4375 0,-3.5 -1.10417,-6.08333 -3.3125,-7.75 -2.16667,-1.66667 -5.52083,-2.5 -10.0625,-2.5 h -8.25 z m 0,14.6875 v 24.75 h 10.3125 c 4.66667,0 8,-1.10417 10,-3.3125 2.04167,-2.20833 3.0625,-5.375 3.0625,-9.5 0,-2.45833 -0.47917,-4.58333 -1.4375,-6.375 -0.91667,-1.79167 -2.375,-3.16667 -4.375,-4.125 -2,-0.95833 -4.64583,-1.4375 -7.9375,-1.4375 z m 86.875,4.6875 -18.1875,35.4375 h -20.4375 l 22.4375,-40.125 c -2.70833,-1.33333 -5.16667,-3.10417 -7.375,-5.3125 -2.20833,-2.25 -3.95833,-4.97917 -5.25,-8.1875 -1.29167,-3.25 -1.9375,-7.02083 -1.9375,-11.3125 0,-8.70833 2.72917,-15.29167 8.1875,-19.75 5.5,-4.45833 13.4375,-6.6875 23.8125,-6.6875 h 25.875 v 91.375 h -18.4375 v -35.4375 z m 8.6875,-40.6875 h -6.8125 c -3,0 -5.54167,0.4375 -7.625,1.3125 -2.04167,0.875 -3.58333,2.20833 -4.625,4 -1.04167,1.75 -1.5625,4.0625 -1.5625,6.9375 0,4.45833 1.125,7.85417 3.375,10.1875 2.29167,2.33333 5.79167,3.5 10.5,3.5 h 6.75 z m 105,29.125 c 0,10.25 -1.6875,18.875 -5.0625,25.875 -3.375,6.95833 -8.27083,12.22917 -14.6875,15.8125 -6.41667,3.54167 -14.20833,5.3125 -23.375,5.3125 h -23.6875 v -91.375 h 25.75 c 8.54167,0 15.875,1.6875 22,5.0625 6.125,3.375 10.83333,8.375 14.125,15 3.29167,6.58333 4.9375,14.6875 4.9375,24.3125 z m -19.0625,0.6875 c 0,-6.79167 -0.83333,-12.375 -2.5,-16.75 -1.625,-4.375 -4.04167,-7.60417 -7.25,-9.6875 -3.20833,-2.08333 -7.16667,-3.125 -11.875,-3.125 h -7.6875 v 60.1875 h 6.0625 c 7.91667,0 13.77083,-2.54167 17.5625,-7.625 3.79167,-5.08333 5.6875,-12.75 5.6875,-23 z"
       id="text44"
       transform="matrix(0.36302456,0,0,0.36302456,-67.66472,-82.209208)"
       aria-label="МАДBЯD"
       sodipodi:nodetypes="cccccsccccccccccsscccccccccccccccccccssccccccccccccccccccccccsssccccccsccscccscscsccccscscsscccccccscsccccccsccscsccsccsccsscsscssccsss" />
  </g>
</svg>
